<svg width="9" height="11" viewBox="0 0 11 11" fill="none" xmlns="http://www.w3.org/2000/svg">
<path d="M0.628506 0C0.467948 0 0.305207 0.0623533 0.183015 0.184515C-0.061005 0.428475 -0.061005 0.831317 0.183015 1.0751L4.60902 5.5L0.183015 9.9249C-0.061005 10.1689 -0.061005 10.5717 0.183015 10.8155C0.301207 10.9336 0.466311 11 0.628506 11C0.790702 11 0.955624 10.9338 1.074 10.8155L5.5 6.39076L9.926 10.8155C10.0442 10.9336 10.2093 11 10.3715 11C10.531 11 10.691 10.9415 10.817 10.8155C11.061 10.5715 11.061 10.1687 10.817 9.9249L6.39116 5.5L10.817 1.0751C11.061 0.831135 11.061 0.428293 10.817 0.184515C10.573 -0.0592629 10.17 -0.0594447 9.92618 0.184515L5.50018 4.60942L1.07418 0.184515C0.95217 0.0625351 0.789429 0 0.628688 0H0.628506Z" fill="#18379A"/>
</svg>
