<svg width="104" height="49" viewBox="0 0 104 49" fill="none" xmlns="http://www.w3.org/2000/svg">
<path d="M16.965 12.074C16.965 11.84 16.64 11.723 15.99 11.723C14.43 11.723 12.753 12.009 10.959 12.581C9.165 13.127 7.618 13.894 6.318 14.882C5.044 15.87 4.407 16.858 4.407 17.846C4.407 18.808 5.538 20.472 7.8 22.838C10.062 25.204 11.193 26.985 11.193 28.181C11.193 29.039 10.764 29.754 9.906 30.326C9.048 30.898 8.021 31.184 6.825 31.184H5.85C3.354 31.184 1.612 30.417 0.624 28.883L0.702 28.649C1.82 29.169 3.016 29.429 4.29 29.429C5.564 29.429 6.825 29.182 8.073 28.688C9.347 28.194 9.984 27.609 9.984 26.933C9.984 26.543 9.425 25.75 8.307 24.554C6.149 22.292 4.797 20.758 4.251 19.952C3.731 19.146 3.471 18.184 3.471 17.066C3.471 14.18 6.162 12.035 11.544 10.631C13.936 10.085 15.301 9.812 15.639 9.812C15.977 9.812 16.289 9.851 16.575 9.929L17.55 10.943C17.966 11.411 18.2 11.801 18.252 12.113C18.252 12.659 17.55 13.309 16.146 14.063C14.768 14.791 13.923 15.155 13.611 15.155L13.572 14.96L15.561 13.595C16.497 12.971 16.965 12.464 16.965 12.074ZM19.7596 10.163L18.3946 10.436C18.2646 10.436 18.1996 10.358 18.1996 10.202C18.1996 9.812 18.6936 9.617 19.6816 9.617C20.6956 9.617 21.4366 9.799 21.9046 10.163C22.3986 10.527 22.6456 10.995 22.6456 11.567C22.6456 12.113 22.0606 13.582 20.8906 15.974L18.5896 20.693L16.2886 25.997C17.3546 25.061 18.4076 23.969 19.4476 22.721C20.5136 21.447 21.3066 20.433 21.8266 19.679C22.3726 18.899 22.6846 18.509 22.7626 18.509H22.9576C23.8936 18.509 24.3616 18.691 24.3616 19.055C24.3616 18.951 24.2966 19.016 24.1666 19.25C23.4386 20.576 22.7886 22.175 22.2166 24.047C21.6446 25.919 21.3586 27.141 21.3586 27.713C21.3586 29.299 21.6316 30.092 22.1776 30.092C22.3596 30.092 22.7366 29.845 23.3086 29.351C23.3866 29.351 23.4256 29.455 23.4256 29.663C23.4256 30.339 23.0486 30.677 22.2946 30.677C21.5666 30.677 20.9686 30.3 20.5006 29.546C20.0326 28.792 19.7986 27.908 19.7986 26.894C19.7986 25.88 20.0456 24.697 20.5396 23.345C18.8496 25.061 17.2376 26.504 15.7036 27.674C15.1836 29.104 14.9236 30.105 14.9236 30.677V30.872C15.1576 31.028 15.2746 31.158 15.2746 31.262C15.2746 31.496 15.1186 31.613 14.8066 31.613C14.6506 31.613 14.5076 31.548 14.3776 31.418C12.9996 29.988 12.3106 29.195 12.3106 29.039C12.3106 28.883 12.3886 28.805 12.5446 28.805H12.6226C13.3246 28.389 13.9096 27.999 14.3776 27.635C14.8976 25.659 15.6776 23.475 16.7176 21.083L18.9406 15.974C19.9286 13.712 20.4486 12.061 20.5006 11.021C20.5006 10.449 20.2536 10.163 19.7596 10.163ZM14.0656 30.404C14.0396 30.274 14.0266 30.079 14.0266 29.819C14.0266 29.585 14.0656 29.234 14.1436 28.766C13.5456 29.078 13.1946 29.247 13.0906 29.273C13.3246 29.663 13.6496 30.04 14.0656 30.404ZM33.7469 20.888L32.7719 20.732C32.8239 21.252 32.8499 21.668 32.8499 21.98C32.8499 24.138 32.3039 26.049 31.2119 27.713C30.1199 29.351 28.7549 30.17 27.1169 30.17C25.0109 30.17 23.9579 29.065 23.9579 26.855C23.9579 25.971 24.1529 25.035 24.5429 24.047C24.9589 23.033 25.4659 22.214 26.0639 21.59C25.7779 21.122 25.6349 20.511 25.6349 19.757C25.6349 19.003 25.9469 18.327 26.5709 17.729C27.1949 17.105 27.9619 16.793 28.8719 16.793C30.5879 16.793 31.7319 17.677 32.3039 19.445C33.5259 19.679 34.1369 19.965 34.1369 20.303C34.1369 20.693 34.0069 20.888 33.7469 20.888ZM28.4039 17.885C27.8579 17.885 27.4029 18.132 27.0389 18.626C26.6749 19.12 26.4929 19.627 26.4929 20.147C26.4929 20.641 26.5319 21.005 26.6099 21.239C28.3779 19.913 29.5999 19.25 30.2759 19.25H30.3929C30.0549 18.34 29.3919 17.885 28.4039 17.885ZM27.9749 22.565C28.2349 22.747 28.4429 22.838 28.5989 22.838C28.7549 22.812 28.8459 22.799 28.8719 22.799C29.0019 22.799 29.0669 22.864 29.0669 22.994C29.0669 23.202 28.8849 23.306 28.5209 23.306C28.1829 23.306 27.8709 23.215 27.5849 23.033C26.2069 24.645 25.5179 26.166 25.5179 27.596C25.5179 29 26.0379 29.702 27.0779 29.702C28.1439 29.702 29.1449 28.87 30.0809 27.206C31.0169 25.516 31.4849 23.904 31.4849 22.37C31.4849 21.694 31.3679 21.148 31.1339 20.732C30.1459 20.888 29.0929 21.499 27.9749 22.565ZM36.8172 18.275L35.4912 18.587C35.3352 18.587 35.2572 18.496 35.2572 18.314C35.2572 17.898 35.8292 17.69 36.9732 17.69C38.7672 17.69 39.6642 18.301 39.6642 19.523C39.6642 19.913 39.2872 20.966 38.5332 22.682C40.5352 19.9 42.3162 18.509 43.8762 18.509C45.1242 18.509 45.7482 19.224 45.7482 20.654C45.7482 22.552 44.8122 24.619 42.9402 26.855C41.0942 29.091 39.3002 30.209 37.5582 30.209C36.6742 30.209 35.9202 30.014 35.2962 29.624C33.6322 33.29 32.8002 36.098 32.8002 38.048C32.8002 38.672 33.0342 38.984 33.5022 38.984L34.7112 38.555C34.7632 38.555 34.7892 38.581 34.7892 38.633C34.7892 38.815 34.6072 38.984 34.2432 39.14C33.8792 39.322 33.5282 39.413 33.1902 39.413C32.8522 39.413 32.4882 39.179 32.0982 38.711C31.6822 38.243 31.4742 37.762 31.4742 37.268C31.4742 35.084 32.2802 32.068 33.8922 28.22C33.6322 27.726 33.5022 27.388 33.5022 27.206C33.5022 27.024 33.5412 26.933 33.6192 26.933L33.6972 26.972C33.7752 27.31 33.9052 27.583 34.0872 27.791C36.4532 22.253 37.6362 19.289 37.6362 18.899C37.6362 18.483 37.3632 18.275 36.8172 18.275ZM43.9152 20.459C43.9152 19.783 43.6942 19.445 43.2522 19.445C42.3942 19.445 41.2242 20.303 39.7422 22.019C38.2862 23.735 36.8822 26.062 35.5302 29V29.039C35.8682 29.169 36.3622 29.234 37.0122 29.234C38.5202 29.234 40.0412 28.22 41.5752 26.192C43.1352 24.164 43.9152 22.253 43.9152 20.459ZM57.248 32.432L57.443 33.875C57.443 34.005 57.43 34.07 57.404 34.07C57.196 34.07 57.014 33.836 56.858 33.368C56.702 32.9 56.624 32.406 56.624 31.886C56.624 30.144 57.781 26.959 60.095 22.331C59.549 22.461 58.587 22.643 57.209 22.877C54.401 23.449 52.412 23.735 51.242 23.735C50.072 23.735 49.487 23.15 49.487 21.98C49.487 21.928 49.513 21.889 49.565 21.863C50.371 22.071 51.606 22.175 53.27 22.175C54.96 22.175 57.352 22.006 60.446 21.668L62.552 17.378C63.384 15.558 63.8 14.037 63.8 12.815C63.8 11.021 62.799 10.124 60.797 10.124C59.081 10.124 56.832 10.787 54.05 12.113C51.294 13.439 49.11 14.895 47.498 16.481C47.446 16.533 47.368 16.559 47.264 16.559C46.9 16.559 46.718 16.195 46.718 15.467C46.718 14.583 47.654 13.66 49.526 12.698C51.398 11.71 53.452 10.93 55.688 10.358C57.924 9.76 59.705 9.461 61.031 9.461C63.995 9.461 65.477 10.787 65.477 13.439C65.477 14.635 65.308 15.636 64.97 16.442C64.632 17.222 63.644 18.899 62.006 21.473C63.436 21.187 64.268 21.044 64.502 21.044C64.762 21.044 64.892 21.096 64.892 21.2C64.892 21.278 64.853 21.343 64.775 21.395C64.697 21.447 64.541 21.499 64.307 21.551C64.099 21.603 63.891 21.642 63.683 21.668C62.981 21.824 62.318 21.954 61.694 22.058C58.73 26.816 57.248 30.274 57.248 32.432ZM74.7039 30.131L75.0939 30.053L75.1719 30.092C75.1719 30.326 74.8469 30.443 74.1969 30.443C73.5729 30.443 73.0529 30.157 72.6369 29.585C72.2469 29.013 72.0519 28.246 72.0519 27.284C72.0519 26.296 72.2339 25.178 72.5979 23.93C72.5979 24.008 72.2469 24.541 71.5449 25.529C69.4129 28.831 67.7359 30.482 66.5139 30.482C65.9939 30.482 65.5129 30.235 65.0709 29.741C64.6549 29.273 64.4469 28.662 64.4469 27.908C64.4469 27.128 64.9019 25.958 65.8119 24.398C66.7479 22.812 67.8659 21.408 69.1659 20.186C70.4659 18.964 71.5839 18.353 72.5199 18.353H72.9099C73.8719 18.353 74.6909 18.548 75.3669 18.938C76.0429 19.302 76.3809 19.796 76.3809 20.42C76.3809 20.706 76.2639 20.849 76.0299 20.849C75.9519 20.849 75.9129 20.81 75.9129 20.732C75.4709 19.77 74.8339 19.289 74.0019 19.289C72.5459 19.289 70.8559 20.511 68.9319 22.955C67.0339 25.373 66.0849 27.219 66.0849 28.493C66.0849 28.987 66.2149 29.234 66.4749 29.234C67.6449 29.234 70.1019 26.595 73.8459 21.317C73.8979 21.265 73.9759 21.239 74.0799 21.239C74.2099 21.239 74.4829 21.369 74.8989 21.629C75.3149 21.863 75.5229 22.071 75.5229 22.253C75.5229 22.253 75.3409 22.591 74.9769 23.267C74.1189 25.087 73.6899 26.686 73.6899 28.064C73.6899 29.442 74.0279 30.131 74.7039 30.131ZM83.4368 12.815C83.4888 12.815 83.5148 12.88 83.5148 13.01L83.3198 14.141C82.9298 15.753 82.3318 16.559 81.5258 16.559C80.9278 16.559 80.4598 16.403 80.1218 16.091C81.1098 15.415 82.2148 14.323 83.4368 12.815ZM81.4088 19.211C80.6028 20.589 79.8358 22.344 79.1078 24.476C78.3798 26.582 78.0158 28.038 78.0158 28.844C78.0158 29.65 78.1848 30.053 78.5228 30.053C78.7568 30.053 79.0558 29.91 79.4198 29.624C79.7838 29.338 80.0048 29.156 80.0828 29.078C80.1608 29 80.2518 28.922 80.3558 28.844C80.4598 28.844 80.5118 28.896 80.5118 29C80.5118 29.312 80.1348 29.676 79.3808 30.092C78.6528 30.534 78.1198 30.755 77.7818 30.755C76.7938 30.755 76.2998 30.04 76.2998 28.61C76.2998 26.478 77.0798 23.631 78.6398 20.069C78.6398 19.965 78.7048 19.77 78.8348 19.484C78.9908 19.198 79.1078 19.016 79.1858 18.938C79.3678 18.756 79.6148 18.665 79.9268 18.665C80.8368 18.665 81.3308 18.847 81.4088 19.211ZM93.6274 18.392C93.6274 18.288 93.4844 18.431 93.1984 18.821C92.2104 20.199 91.6774 21.213 91.5994 21.863C91.5994 22.565 91.8464 22.994 92.3404 23.15C92.5224 23.202 92.6134 23.241 92.6134 23.267C92.6134 23.475 92.3534 23.579 91.8334 23.579C91.3394 23.579 90.9104 23.384 90.5464 22.994C90.1824 22.578 90.0004 22.123 90.0004 21.629C90.0004 21.109 90.0654 20.667 90.1954 20.303C88.9214 21.317 87.8554 22.357 86.9974 23.423C86.1654 24.489 85.5934 25.412 85.2814 26.192C84.9694 26.972 84.7354 27.687 84.5794 28.337C84.4234 28.961 84.2934 29.429 84.1894 29.741C84.0854 30.079 83.9164 30.248 83.6824 30.248C83.4484 30.248 83.1884 30.183 82.9024 30.053C82.6164 29.923 82.4734 29.767 82.4734 29.585C82.4734 29.143 82.9024 27.583 83.7604 24.905C84.6184 22.201 85.0474 20.173 85.0474 18.821C85.0474 18.379 84.8654 18.145 84.5014 18.119C84.1374 18.067 83.9554 17.989 83.9554 17.885C83.9554 17.651 84.1504 17.534 84.5404 17.534C86.2824 17.534 87.1534 18.249 87.1534 19.679C87.1534 20.095 86.7244 21.629 85.8664 24.281C87.2704 21.993 88.8304 20.42 90.5464 19.562C90.9624 18.626 91.5734 18.158 92.3794 18.158C93.2114 18.158 93.6274 18.236 93.6274 18.392ZM103.758 21.668C103.758 24.164 102.9 27.466 101.184 31.574C99.2603 36.046 96.9593 39.829 94.2813 42.923C91.6033 46.017 89.2763 47.564 87.3003 47.564C85.5843 47.564 84.7263 46.719 84.7263 45.029C84.7263 42.975 86.1953 40.31 89.1333 37.034C92.2013 33.576 95.5423 30.82 99.1563 28.766C99.2863 28.766 99.1563 29 98.7663 29.468C89.9783 36.774 85.5843 42.052 85.5843 45.302C85.5843 46.55 86.0783 47.174 87.0663 47.174C88.7563 47.174 90.7973 45.536 93.1893 42.26C95.5813 38.984 97.6223 35.279 99.3123 31.145C101.028 27.037 101.886 23.774 101.886 21.356C101.886 20.446 101.73 19.822 101.418 19.484C97.9603 23.098 95.5423 26.14 94.1643 28.61C93.7223 29.702 93.3323 30.248 92.9943 30.248C92.2143 30.248 91.8243 30.027 91.8243 29.585C91.7983 29.325 92.3183 27.778 93.3843 24.944L94.4763 21.941C94.8143 20.901 95.0093 19.861 95.0613 18.821V18.665C95.0613 18.379 95.0223 18.21 94.9443 18.158C94.8923 18.106 94.7233 18.08 94.4373 18.08C94.1773 18.08 94.0473 18.015 94.0473 17.885C94.0473 17.651 94.2553 17.534 94.6713 17.534C96.3353 17.534 97.1673 18.158 97.1673 19.406C97.1673 20.004 96.3873 22.214 94.8273 26.036C95.7373 24.788 97.0503 23.241 98.7663 21.395C100.508 19.523 101.6 18.587 102.042 18.587C102.042 18.821 101.938 19.029 101.73 19.211C102.9 19.341 103.524 19.601 103.602 19.991C103.706 20.667 103.758 21.226 103.758 21.668Z" fill="#FDCD00"/>
</svg>
